<?xml version="1.0" encoding="UTF-8"?>
<svg id="Layer_2" data-name="Layer 2" xmlns="http://www.w3.org/2000/svg" viewBox="0 0 272.41 272.41">
  <defs>
    <style>
      .cls-1 {
        fill: #b6d900;
      }
    </style>
  </defs>
  <g id="Layer_1-2" data-name="Layer 1">
    <g>
      <path class="cls-1" d="M217.93,3c0-1.66-1.34-3-3-3H21.82C9.77,0,0,9.77,0,21.82v194.87c0,.8.32,1.56.88,2.12l48.48,48.48c1.89,1.89,5.12.55,5.12-2.12V54.48h163.45V3Z"/>
      <path class="cls-1" d="M267.29,5.12l-49.19,49.19c-.11.11-.18.27-.18.43v163.21h0s-108.96-.01-108.96-.01v54.48h109.55s0,0,.02,0h31.46c12.38,0,22.42-10.04,22.42-22.42V7.24c0-2.67-3.23-4.01-5.12-2.12Z"/>
      <rect class="cls-1" x="108.96" y="108.96" width="54.48" height="54.48"/>
    </g>
  </g>
</svg>